<?xml version="1.0" encoding="utf-8"?>
<!-- Generator: Adobe Illustrator 24.0.2, SVG Export Plug-In . SVG Version: 6.00 Build 0)  -->
<svg version="1.1" id="Capa_1" xmlns="http://www.w3.org/2000/svg" xmlns:xlink="http://www.w3.org/1999/xlink" x="0px" y="0px"
	 viewBox="0 0 1536 1024" style="enable-background:new 0 0 1536 1024;" xml:space="preserve">
<style type="text/css">
	.st0{fill-rule:evenodd;clip-rule:evenodd;fill:#FFD7C5;}
	.st1{fill:#FF0C0C;}
	.st2{fill:#632409;}
	.st3{fill-rule:evenodd;clip-rule:evenodd;fill:#FFFFFF;}
	.st4{fill-rule:evenodd;clip-rule:evenodd;fill:#F7B900;}
	.st5{fill-rule:evenodd;clip-rule:evenodd;fill:#060504;}
</style>
<g>
	<path class="st0" d="M865.2,551.7L817,565.5l-58.6,43l-40.6,52.1l-18.5,64.8l6.1,82.3l45.8,65.3c0,0,38.1,40,76.7,47
		c38.6,7,103.4,3,103.4,3s57.6-11.9,73.5-23.2c15.9-11.3,42.7-41.3,44.2-40.2s17.6,3.7,17.6,3.7s38.2-2.1,42.4-6.7
		c4.2-4.6,29.4-22.6,29.4-33.9s0.1-39.6-10.8-51.2c-10.9-11.7-38.1-4.8-38.1-4.8l-19.5,10.7l-1.4-12.4l3.6-24.3l5-59l-26.9-32.4
		l-44.2-39.1l-39.4-24.7L925,565.7l-58.8-14.1H865.2z"/>
	<path class="st0" d="M618.3,577.7l-18.9,13l-1.6,34.6l3.1,62.7l-7,8.6l-20.2,3.1l-11.5,9.3h-16.8l-19,7.4l-8.9,20.7l6.2,31.2
		l9.6,24.7c0,0,0.7,36,1,38.7c0.3,2.7,8.6,24,9.6,25.4s21.6,10.3,24,11c2.4,0.7,49.4-3.4,50.4-3.8s36-11.3,36-11.3
		s6.9-18.9,7.9-20.6c1-1.7,0-75.7,0-75.7l-4.2-59.4l-2-82.6l-8.6-23L618.3,577.7z"/>
</g>
<g>
	<path class="st1" d="M883.3,838.2c0,0,17-44.5,32.4-49.1c15.4-4.6,30.1-12.1,36.5,13.4C956.4,841.4,901.6,834.1,883.3,838.2z"/>
	<path class="st1" d="M360.8,519C241.4,534.7,198,676.8,252.1,768.6c0,0,85,168.7,85,168.7l38.4,57.9c0,0,15.2,11,15.2,11l30.4-18.5
		l102.2-194.7l-1.4-57.3l4.5-19.7l19.3-6l14.3-38.5c0,0-17.8-105.6-68.9-128.2C440,520.7,404,504.6,360.8,519z"/>
</g>
<g>
	<path class="st2" d="M778,492.9c3.1,1.4,8.3,3.7,14.8,6c9.7,3.5,13,3.9,17.4,7.2c4.6,3.5,3.4,5.1,9.6,13.4
		c4.7,6.3,6.4,6.6,17.6,19.3c6.2,7,8.7,10.3,7.7,13.2c-0.5,1.5-1.9,2.5-5.7,4.1c-9.6,4.1-13.7,3.2-20.6,5.8
		c-6.8,2.6-5.6,4.5-14.1,8.6c-2.2,1-8.6,4-16.8,5.3c-9.9,1.6-17.1-0.1-31-3.5c-19.7-4.8-22.2-8.9-23-10.4c-2.2-4.3-2-9.7-0.1-13.6
		c3.1-6.5,10.8-9.3,15-10.8c5.9-2.1,7.8-1.2,9.6-3.5c1.5-1.9,1.4-4-0.4-15.8c-1.6-10.6-2.1-11.8-1.4-14.5c1.6-6.9,7.2-10.8,8.4-11.6
		c6.8-4.8,16-5.3,16.7-3.5C782,489.2,781.5,490.4,778,492.9z"/>
	<path class="st2" d="M1077.6,686.3c0.3,2.1-0.7,14-2.8,37.8c-1.7,19.6-2.6,29.4-5,35.7c-1.3,3.4-4.1,9.9-1.7,12.1
		c1.5,1.4,4.4,0.4,7.2-0.5c20.5-6.7,23.3-4,27.9-9c2.1-2.3,3.3-6.7,5.8-15.4c2.5-8.8,4-14,3.3-20.7c-0.6-7-3.2-11.9-5.7-16.5
		c-9-16.7-25.2-29.9-28.5-27.4C1077.1,683.2,1077.4,685.2,1077.6,686.3z"/>
</g>
<g>
	<path class="st3" d="M374.7,584.7c0,0-48.3,48.6-46.5,82.3c1.8,33.7,6.9,81.3,8,81.8c1,0.5,46.8,24.4,47.8,24.4s37.8-3.1,40.1-4.4
		c2.3-1.3,34.7-47.8,34.7-47.8s-4.4-68.7-4.1-69.7s-10.3-40.4-10.3-40.4l-36-21.9L374.7,584.7z"/>
	<path class="st3" d="M1059.6,390.7l-32.7-27.3l-46-11.6l-37.9,3.6L917.1,367L885,397.3c0,0-4.4,23.3-3.7,23.4
		c0.6,0.1,3.6,27.1,4.5,27s12.3,13.6,12.7,13.8c0.4,0.1,6.9,12,6.9,12L865.2,551c0,0,40.2,8.7,40.6,8.7c0.4,0,52.8,22.2,52.8,22.2
		l28.7,15.7l43.5,34.3l43.7,42.7l25.6,27.1l13.4,17.2l9.4-4.9l42.8-58.2l25.7,25.2l45.8,6.5l24.2-8.7l25.1-32.3l7.9-32.4l-17-46.8
		l-26.5-17.2l-27.3-5.4l12.1-48.6l-8.5-53l-26-27l-50.4-31.1l-50.7-2.6L1059.6,390.7z"/>
</g>
<g>
	<path class="st4" d="M739.4,869.7c0,0-9,29.8-9,30.9s18.5,34.3,19.5,35c1,0.7,52.1,28.9,52.1,28.9l55.5,4.3L919,966l21.9-4.5
		l26.4,5.1c0,0,14.7,17.1,15.8,17.8c1,0.7,21.9,20.2,24,20.6c2.1,0.3,44.6,2.1,44.6,2.1l26.3-4.2c0,0,13.5-13.3,16.9-13.6
		c3.4-0.3,20.9-10.3,20.9-10.3l-23-8.2l-20.9-45.1l-23-20.8l-22.8-2.4l-23.8-1.4l-28.1,8.9c0,0-47.3,14.8-45.9,15.6
		c1.4,0.8-24.3,2.6-24.3,2.6l-62.7-5.4l-36.3-11.4L769.1,892L739.4,869.7z"/>
	<path class="st4" d="M769.1,140.6l-41.7,11.1l-44.7-30.2L694.1,72l15.4-17.5l45-22c0,0,79.7-9.7,85.6-10.7
		c5.9-1,69.9,10.5,69.9,11.8s37,48.1,37,48.1l3.9,60.4l7.5,38.8l28.3-2.5l14.4-12.4l19.8-40.9l21.1-14.1c0,0,19,11.6,19.8,13.6
		c0.8,2.1-0.8,24.9,0,26c0.8,1-20.6,14.4-19.5,14.4s10.3,14.7,11.6,15.9c1.3,1.3,22.9,7.2,22.9,7.2l10-26l11.8-44l1-34.1l16.7-27.1
		c0,0,43.2,1.5,45.8,5.4c2.6,3.9,13.9,35.7,15.7,36.3c1.8,0.5-14.4,43.5-14.4,44.7c0,1.3-9.3,28.7-9.8,29.5s-13.4,62.8-13.1,64.3
		c0.3,1.5-1.5,13.6-0.3,13.1c1.3-0.5,51.7-34.2,51.7-34.2s29.8-1.5,31.6,0.3c1.8,1.8,34.2,20.3,36.3,21.1s23.1,7.2,23.1,7.2
		s7.7,12.8,8.5,14.1c0.8,1.3,21.6,6.7,23.1,6.7s23.9-0.5,24.9,1c1,1.5,18.3,15.4,18.5,16.7c0.3,1.3,8.7,14.1,10,16.7
		c1.3,2.6,26,15.7,26,15.7s-5.7,27.8-5.7,28.5c0,0.8-26.5,24.9-26.5,24.9l-24.9-12.1l-6.7-4.6c0,0-18.5,11.6-19,12.6
		c-0.5,1-31.9,28.3-31.9,28.3l-13.4,7.7l-36.3-18l-53.5-33.2l-38.3-11.1l-20.6-8.2l-34.7,0.5l-27.3-22.4c0,0-19.3-4.1-18.5-3.3
		c0.8,0.8-15.9,13.2-16.5,13.4s-53.2-5.2-53.2-5.2l-30.1-41.1c0,0-57.6,37.5-56.1,36.5c1.5-1-72.3,8.2-72.3,8.2l-31.4-6.2l-0.8-42.9
		L769.1,140.6z"/>
	<path class="st4" d="M342.1,436.4c1-0.3,17.5-31.9,18.9-31.9c1.4,0,2.1-20.9,2.1-22.3c0-1.4-15.1-52.5-15.1-52.5l-9.6-24.5
		c0,0-9.6-0.3-8.6-1.3c1-1-13,14.5-13,14.5s-22.6,8.2-23.7,8.2s-17.8-10.3-17.8-10.3l2.1-29.7l31.5-53.7c0,0,35.7-8.9,36.7-7.9
		c1,1,42.9,11,44.2,11.3c1.4,0.3,10.3-11.4,10.3-11.4v-18.8c0,0,25.7-119.7,27.4-118.3c1.7,1.4,39.4-10.3,39.4-10.3s30.2,1,31.9,2.7
		c1.7,1.7,11,18.9,11.7,21.6c0.7,2.7-1.5,37-1.5,37s-32.1,7.9-31.7,9.3c0.3,1.4,3.4,40.5,4.5,41.1s35-2.4,35-2.4l81.6-14.4
		c0,0,36.7,15.4,38.1,17.8c1.4,2.4,11.3,21.3,12.7,23c1.4,1.7-2.7,38.4-2.7,38.4l-5.5,15.1l14.7,21.9l18.2,15l15.5-25.5
		c0,0,45.5,7,46.2,8.2c0.7,1.2,3.4,28.3,3.4,28.3l-16.5,16.8l-38.4-0.3l-16.5,12.3l-34.6,0.7c0,0-33.9-20.2-33.9-19.2
		c0,1-13,8.7-13,8.7l-1.7,25.9l-31.5,29.5L497,377.1l-25.7-31.5L461,327l-16.5,11.3l-18.9,5.1c0,0-12.3,2.1-11,2.7
		s3.8,53.1,4.8,53.8s-4.8,41.5-4.8,41.5L396.6,459l-38.1,3.8L342.1,436.4z"/>
</g>
<g>
	<path class="st5" d="M797.1,9.1C732.5,15.9,690.4,41,677.5,80.4c-2.9,8.9-3.3,11.9-3.3,24.1c0,11.5,0.5,15.2,2.7,21.6
		c9.1,26.4,32,41.9,58.7,39.9c8.9-0.7,18.9-4,25.4-8.4c2.3-1.6,4.3-2.8,4.4-2.8c0.1,0,0.3,34.6,0.3,76.8l0.1,76.8l3.1,6.4
		c4,8.3,8.4,11,19.6,12.2c10.8,1.2,68.4-0.4,77.7-2.2c24-4.6,44.1-14.6,61.6-30.6l7.2-6.6l3.8,7.9c4.8,10,18.1,23.7,28.7,29.6
		c25,13.8,55.2,12.2,76.3-4.1l5.2-4l4.2,6.5c8.7,13.4,21.9,22.1,37.1,24.5c9.4,1.5,27.5,0.8,32.7-1.2c3-1.1,3.7-1,6.4,1.5
		c9.9,9.3,24.2,14.6,39,14.6c9.4,0,9.7,0.1,11.4,3.2c2.3,4.5,11.9,13.3,18.1,16.8c5.6,3.2,16.2,6.6,20.4,6.6c1.6,0,5.3,2.7,9.9,7.3
		c9.7,9.6,24.1,16.2,35.7,16.3c13.2,0.2,18.3-3.6,48-35.4c6.3-6.8,13.5-13.2,15.8-14.3l4.3-2l5.6,5c10.5,9.3,22.1,13,33,10.4
		c18.7-4.4,32.2-18.6,35.7-37.4c2.2-12.2-1.2-25.2-9.6-35.7c-4.2-5.4-15.4-13-21.8-14.9c-3.7-1.1-4.4-1.9-5-5.5
		c-1.8-11.1-14.1-22.1-29.3-26.3c-8.1-2.2-23.1-2.9-30.4-1.3l-4.1,0.9l-2.7-7.5c-3.4-9.6-10.8-17.9-19.6-22.2
		c-5.7-2.8-8-3.2-17.1-3.2c-10.3,0-10.5-0.1-15.7-4.3c-6.9-5.6-18.4-10.9-28.3-13.1c-24.4-5.2-48.9,2-69.2,20.2
		c-3.3,3-4.4,3.5-3.7,1.8c0.5-1.3,6.8-22.9,14-48s14.8-50.9,16.7-57.3c4.6-14.9,5.6-27.5,3.1-37.5c-7-27.3-32.2-45.3-57-40.8
		c-19.3,3.6-34.3,17-39.2,35.3c-2.5,9.3-1.8,17.4,2.2,24.5l2.8,5.1l-7.3,25.8c-4,14.2-8.5,30.5-9.9,36.2c-1.5,5.7-2.8,10.6-3,10.9
		c-0.2,0.3-3.4-2.4-7-5.8c-3.7-3.5-8-7.2-9.6-8.4l-2.9-2.1l4-3.1c11.6-8.9,17.6-18.6,18.3-29.9c1.2-18.1-11.2-32.2-29.5-33.7
		c-15.6-1.3-24,4.1-36.7,23.3c-10,15-13.1,21.4-14.1,28.8c-0.7,4.9-1.1,5.4-8.9,10.2c-4.5,2.8-10.7,7.1-13.7,9.4
		c-3,2.4-5.8,4.3-6.1,4.3c-0.3,0-0.6-9.8-0.6-21.8c0-46.5-7.3-77-23.8-100.3C924,28.9,895.3,13.7,857.6,9
		C846.3,7.6,810.4,7.7,797.1,9.1 M798.6,33.5c-14,1.4-36.1,5.9-47.5,9.7c-25.9,8.6-41.3,20.8-50,39.3c-3,6.4-3.2,7.9-3.2,21.4
		c0,12.8,0.3,15,2.6,19.3c3.9,7.3,8.7,12.2,15.5,16c11.9,6.5,27.6,3.8,38-6.6c5.4-5.4,8-11.9,8-20c0-9.2-2.9-15.2-10.2-21.4
		c-8.9-7.5-7.5-12.8,4.7-18.8c6.6-3.2,23.3-7.1,27.8-6.5l2.1,0.4l1.2,119.5v119.5h25.5c36.8,0,53-2.1,71.4-9.2
		c22.1-8.5,39.2-28.7,47.7-56.2c10.9-35.4,12.1-107,2.3-142.9c-6.5-23.8-20.8-42-41-52.3c-12-6.1-18.8-8.2-34.1-10.7
		C847.2,31.9,816.2,31.7,798.6,33.5 M455,63.9c-8,2-11.3,3.5-18.3,8c-25.6,16.5-37,50.8-47.2,143.2l-1.4,12.2l-9.4-4.9
		c-13.2-6.8-21.2-8.9-34.3-9c-23.1-0.1-41.8,11-57.2,34c-7,10.5-16.9,29.3-21.1,40c-4.2,10.9-4.6,26.2-0.9,34.2
		c12,25.9,44.5,28.9,62.2,5.6c3.2-4.2,4.8-5.5,5.4-4.4c0.9,1.7,25.4,77.2,25.4,78.4c0,0.4-2.6,1.6-5.7,2.7
		c-26.7,9.5-26.9,46.4-0.4,64c28,18.6,68.4,5.8,80-25.3c5.8-15.5,5.8-29.1,0.1-63.1c-1.9-11-3.4-20.4-3.4-20.8c0-0.5,2.3-0.7,5-0.4
		c8.5,0.7,14.6-1.7,20.8-8c5.3-5.5,5.6-5.6,6.5-3.1c2.2,5.6,15.8,24.9,22.5,31.9c7.3,7.6,18.9,16,26.4,19.1
		c31.2,12.9,68.9,0.2,82.8-27.9c4.3-8.6,4.3-9.1,4.3-21.9c0-9.1,0.4-13.2,1.4-13.6c0.8-0.3,4.3,2.2,7.8,5.6
		c11.7,11.3,25.8,16.9,42.2,16.9c15.6,0,27.3-4.1,35.2-12.2c3.8-3.9,4.2-4.1,8.5-3c19,4.8,35.2,1,47.4-11.1
		c7.6-7.6,11.2-16.1,11.3-26.2c0.4-40.1-60.3-56.2-78.7-21c-2.8,5.3-3.9,6.4-6.4,6.4c-3,0-9.1-5.6-9.1-8.4c0-0.7-1.8-5-4.1-9.7
		l-4.1-8.4l3.2-5.6c17.3-29.7,13-62.4-10.8-81.7c-16.7-13.5-37.3-18.1-63.5-14.3c-13.7,2-70.6,15.7-77.7,18.7
		c-2.4,1-5.2,2.6-6.2,3.5c-1.7,1.5-2.1,0.4-5-11.3c-1.7-7.1-3.1-13.3-3.1-13.7c0-0.4,3.6-1.8,7.9-3.1c36.6-11.1,47.6-50.2,21.5-75.9
		c-7.2-7-18.9-13.4-29.9-16.2C476.9,61.9,463,61.8,455,63.9 M1123.2,69c-7.2,2.5-15.5,10.5-16.6,16c-0.5,2.7,0.1,3.8,3.6,6.9
		c4,3.5,4.3,4,4.2,10.4c-0.1,6.6-12.2,51.6-27.3,101.1c-8.2,27-19.1,70.6-20.6,81.9c-2,16.2,0.8,24.7,11.1,33.8
		c6.4,5.6,10.8,7,22.9,7c12.3,0,13.1-0.6,9.7-7.1c-2.4-4.5-2.7-6.6-2.6-17.2c0.2-17.6,6-41.7,23.2-96c5.8-18.4,21.1-71.5,27.7-96.1
		c1.9-7,2.5-11.5,2-15.6C1158.5,75.2,1140.3,63.1,1123.2,69 M834.3,106.8c0.4,12.6,0.8,52.6,0.8,88.8v65.9l8.7-0.7
		c22.7-1.7,35.8-16.6,41.6-47.2c4.6-24.3,4.6-75.2,0-93.2c-5.9-23-19.5-34.7-42.1-36l-9.7-0.6L834.3,106.8 M457,87.6
		c-25.4,9.1-33.8,34.1-46.6,139.2c-2,16-4,30.3-4.6,31.8c-2,5-6.3,3.4-28.1-10.2c-15.8-9.9-25.4-13.1-36.5-12.4
		c-19.4,1.4-31.1,12.9-48.3,47.8c-8,16.2-9.9,23.5-7.4,29.5c0.8,2,2.9,4.3,4.7,5.2c11,5.7,21.5-3.9,29.5-27
		c2.2-6.2,4.8-11.9,5.9-12.7c2.5-1.8,8.5-1.8,10.9,0c4.5,3.4,16,32.8,32,81.8c10.1,30.7,13.3,44.1,12.2,49.7c-1.1,5.4-6.2,9.8-14,12
		c-8.5,2.4-11.9,5.7-11.9,11.8c0,7.8,6.8,15.7,16.1,18.9c5.1,1.7,15.4,1.7,21.2,0c6.5-1.9,14-9,17.2-16.2
		c7.6-17.2,2.5-55.2-15.1-113.7c-2.5-8.4-4.6-15.5-4.6-15.9c0-0.4,7.3,4.6,16.3,11.1c24.9,18,26.1,18.7,29.4,17.2
		c1.8-0.8,3.3-2.9,4.1-5.7c1.4-5,8.7-47,9.9-57.6c0.5-3.8,1.1-7.4,1.4-7.9c0.3-0.5,3,6.3,6.1,15.1c23.7,68.9,42.8,95.7,71.7,100.9
		c23.4,4.2,46.4-11.6,46.4-32l0-6l-5.5,2.5c-4.4,2-7.7,2.5-16.5,2.6c-10.6,0-11.3-0.1-17.8-4c-3.7-2.2-8.5-6.1-10.6-8.7
		c-13.8-16.7-31-61.6-52.7-137.7c-8.6-30-16.6-62.1-15.7-62.6c0.1-0.1,4.6,0.4,10,1c12.3,1.4,21-0.2,28.6-5.3
		c17.6-11.8,13-34.3-8.7-42.5C477.9,84.6,465.3,84.6,457,87.6 M1036.1,122.7c-4,3-19.3,25.8-19.3,28.7c0,2.9,4.2,8,6.5,8
		c0.6,0,2.4-1.4,4-3c1.5-1.7,7.1-6.4,12.3-10.5c5.2-4.1,10.1-8.4,10.7-9.6c2.1-3.9,1.4-9.8-1.5-12.6
		C1045.8,120.9,1039.2,120.3,1036.1,122.7 M1001.7,179.7c-26,7.3-47.9,40.2-49.5,74.6c-0.7,14.3,0.8,22.6,5.6,32.2
		c4.3,8.6,11.7,15.5,21.7,20.2c6.8,3.2,9.2,3.7,19.9,4.1c13.8,0.5,21.6-1.6,29.6-8c16.3-13,29.9-48.9,29.9-79.1
		c0-12.7-0.3-14.5-3.1-20.5c-6.8-14.6-21.4-24-38.3-24.8C1011.3,178.1,1005.9,178.5,1001.7,179.7 M570.1,186.6
		c-14.7,2.9-59.9,13.8-60.6,14.6c-0.2,0.2,2.4,10.6,5.9,23c3.5,12.4,8.4,30.1,11,39.3c4.9,17.6,15.7,49.4,18.7,55.3
		c1,1.9,3.5,4.9,5.5,6.6c4.4,3.7,8.7,3.6,17.7-0.4l5.5-2.5l-0.6-14.7c-0.4-8.8-1.5-18.2-2.9-23.1l-2.2-8.4l4.6-1.3
		c2.6-0.7,6.9-0.9,9.7-0.5c6.7,1,11.2,5.7,17.7,18.1c8.3,16,12.4,22.1,19.3,29.1c8.6,8.7,14.7,11.6,25.8,12.2
		c14.7,0.8,22.7-2.7,26.8-11.8c2-4.5,2.9-11.2,1.6-12.5c-0.3-0.3-3.3-0.2-6.6,0.4c-13.2,2.1-19.3-2.6-29.1-22.6
		c-7.3-14.7-12.7-21.7-19.5-25.1l-4.7-2.4l6.8-4.3c12.2-7.7,18.1-18.6,18.3-33.7c0.2-15.3-7.5-26.9-22.4-33.9
		C606,183,590.7,182.5,570.1,186.6 M558.2,209.9l-7.9,1.9l0.7,3.6c0.4,2,2.6,10.2,4.8,18.3c4.6,16.7,4.2,16.3,15.9,13.2
		c14.6-3.9,21.5-10.8,21.6-21.6C593.5,211.2,579.3,204.9,558.2,209.9 M1008.1,214.3c-10.6,4.7-21.4,27.2-21.4,44.5
		c0,15.1,11,24,21.6,17.5c7.8-4.8,16.5-30.2,16.5-48.2c0-8.7-1.1-11.3-5.8-13.7C1015,212.3,1012.6,212.2,1008.1,214.3 M1190.9,229.2
		c-8.9,2.9-18.5,8.6-26.2,15.4c-12.7,11.4-25.5,32-29.4,47.2c-2.3,9.1-2.3,23.7,0,29.3c7.3,17.5,32.9,24,54,13.7
		c3-1.5,5.5-2.4,5.4-2c0,0.4-0.5,3-1.1,5.9c-0.8,4.1-0.6,6.2,1.1,9.8c3.5,7.9,16.3,17.9,22.7,17.9c4,0,6.3-3.5,5.5-8.5
		c-1.4-8.6,5.8-21.6,25.4-45.6c19.5-23.9,35.5-45.5,35.5-47.9c0-3.8-3.4-10.7-7.2-14.6c-4.8-5-9.6-5.7-20-3.1l-8.4,2.1l-7.3-6.5
		c-8.8-7.8-15.6-11.7-24.8-14.1C1207.1,225.9,1200.5,226.1,1190.9,229.2 M1210,258.3c-18.5,5.9-41.1,41-34.5,53.8
		c0.8,1.6,3.4,3.8,5.8,5c3.6,1.8,5,1.9,9.2,0.8c2.7-0.7,6.6-2.5,8.5-4c2.9-2.2,32.4-45.2,33.2-48.5c0.5-2-7.9-7.4-12.5-8.1
		C1217.2,257,1212.9,257.4,1210,258.3 M1310.4,278.9c-3.6,1.4-3.9,2.2-1.4,4.3c1,0.8,1.7,1.9,1.7,2.5c0,0.6-5.6,6.9-12.4,14.1
		c-31.6,33-53,57.9-56.9,66c-3,6.2-3,10,0,13.8c3.5,4.5,15.6,10.1,21.7,10.1h5.2l21.6-21.9c22.5-22.9,29.7-28.3,39.2-29.7
		c7.5-1.1,10.2,0.1,19.5,8.8c7.3,6.9,9.1,8,12.7,8c8.4,0,16.4-5.6,20.4-14.5c5.6-12.1-1.3-25.8-15.6-31.3c-4.2-1.6-7.6-1.9-16.2-1.5
		l-10.9,0.6l3.3-4.6c8-11,6.3-19.2-4.7-23.6C1330.3,277.2,1316.2,276.6,1310.4,278.9 M696.5,289.1c-5,3.3-7.2,7.8-7.2,14.6
		c0,7.3,3.3,12.6,9.6,15.4c8.2,3.7,16.8,2.3,23.6-3.9c7.6-6.9,6.4-17.7-2.7-24.7C714,286.1,702.2,285.3,696.5,289.1 M954.3,341.2
		c-33.9,3.9-61.4,22.3-75.3,50.2c-4.8,9.7-8.1,21.8-8.1,30.2c-0.1,15,6.4,30.6,17.8,42.9l7.5,8.1l-4.9,7.6
		c-14.5,22.7-38.2,57-39.4,57c-0.7,0-4.6-4.4-8.7-9.8c-19.5-26-29.9-36.1-44.7-43.5c-20.9-10.3-38.8-7-47.3,8.8
		c-4.5,8.3-5.4,19.7-2.1,29.2c1.2,3.7,2,6.9,1.7,7.2c-0.3,0.3-1.9,0.6-3.6,0.6c-8,0.1-20.7,9.6-23.9,17.9
		c-2.9,7.6-1.6,14.1,4.2,20.7c6,6.8,15.5,11.4,32.1,15.5l13.1,3.3l-6.7,5c-10.5,7.8-33.8,31.9-41.7,43.2
		c-19.6,27.8-30.9,60.1-34.1,97.4c-3.5,40.2,9.2,89,32.5,125.3l5.9,9.3l-1.9,5.1c-1.4,3.8-2,8.8-2,19.5c0,12.2,0.4,15.7,2.6,22
		c11.4,32.5,42.8,54.2,91,62.8c11.4,2,18.5,2.5,39.9,2.5c29.8,0.1,39.3-1.3,60.6-8.4l13.1-4.4l5.7,2.6c4.2,2,7.8,2.6,14,2.6
		c8.3,0,8.4,0.1,10.3,3.8c4.4,8.7,14.6,19.2,26.1,27c17.3,11.6,33.6,16.1,54.8,15.2c7.6-0.3,17-1.5,20.8-2.5
		c9.8-2.7,26.5-10.9,34.9-17.1c3.9-2.9,10.4-6.9,14.5-8.9c11.4-5.7,14.9-8.7,14.9-13.1c0-5.3-1.8-6.5-9.4-6.5
		c-3.6,0-8.1-0.5-9.9-1.2c-10.9-4.1-19.5-14.9-27.6-34.7c-3-7.3-6.4-15.3-7.7-17.7c-3.5-7-10.8-14.1-17.5-17.1
		c-5.2-2.4-7.9-2.7-19.1-2.7c-7.2,0-13-0.3-13-0.8c0-0.4,2.5-2.2,5.5-4c3-1.8,9.9-7.6,15.2-12.9l9.7-9.7l5.6,1.3
		c3.1,0.7,9.6,1.4,14.6,1.4c28.9,0.2,54.3-15.6,66.4-41.4c8.1-17.2,8.4-32.4,1-47.6c-3.9-8-13.4-17.5-20.6-20.7l-4.4-2l1.6-7.1
		c4.7-20.6,24.3-56.2,40.6-73.8l7.6-8.2l3.9,4.6c5.2,6.2,16.8,13.4,27.8,17.2c7.9,2.7,10.9,3.1,24,3.2c13.6,0.1,16-0.2,25.4-3.3
		c23.4-7.7,42.6-26.6,51.3-50.6c2.8-7.6,3.1-10.1,3.1-24.1c0-13.2-0.4-17-2.7-24.3c-9.1-28.9-28.2-47.9-55.5-55.1
		c-4.3-1.1-7.9-2.1-8-2.2c-0.1-0.1,1.4-6.4,3.4-14c3.4-12.8,3.7-15.2,3.6-32.3c0-16.8-0.3-19.5-3.2-28.9
		c-4.2-13.8-10.7-26-20.1-37.8c-23.2-28.8-56.5-45.8-97.7-49.9c-17.3-1.7-34,0-48.8,5l-10.3,3.4l-5.2-5.9
		c-16.3-18.6-44.2-31.4-75.5-34.6C968.9,339.8,966.7,339.8,954.3,341.2 M957.7,358.4c-19.8,1.9-36.2,9.6-50.5,23.7
		c-7.5,7.4-10.4,11.2-13.9,18.5c-4.3,8.9-4.4,9.6-4.4,21.9c0,14.9,1.9,20.2,10.7,29.2l5.2,5.4l5.9-12.1c5.8-11.9,6-12.1,10.2-12.4
		c3.7-0.3,4.5,0.1,5.7,2.7c1.1,2.5,0.9,4.5-1.2,11.9c-6,20.3-11.7,31-37.6,70.9l-16.9,26l4.9,0.9c43,16.1,86.5,33.1,127.6,60.1
		c46.8,38,75.2,70.2,108.5,105l2.1,5.1l5.2-10.3c14.1-27.9,36-51.4,66-71c7.5-4.9,10.2-6.1,13.3-5.8c3.4,0.3,3.9,0.8,4.2,4
		c0.3,3.1-0.7,4.8-7.1,11.6c-4.1,4.3-9.6,9.2-12.2,10.8c-2.6,1.6-4.7,3.2-4.7,3.6c-0.1,2,9.7,11.4,14.9,14.1c10.6,5.8,28,8,41.9,5.4
		c26.9-5.1,50.9-33.1,50.8-59.5c-0.1-22.6-14.2-47.5-32.3-57.2c-9.5-5.1-22.7-8.3-34.4-8.3c-5.3,0-9.9-0.4-10.2-1
		c-0.3-0.5,2.3-7.7,5.9-15.9c15-34.7,15.9-56.3,3.3-82.2c-15.2-31.3-46.9-54-86.8-61.8c-11.7-2.3-37.4-2-46.7,0.6
		c-15.6,4.3-31.6,14-40.1,24.4c-3.5,4.3-5.1,5.3-7.4,5.1c-6.4-0.7-3.8-10,6.4-22.4l5.3-6.5l-3.9-4.1
		C1025.1,367.4,990.2,355.3,957.7,358.4 M770.4,497.5c-10.8,5.8-9.9,21.3,2,33.1c7.9,7.9,27,19.3,41,24.5c5.9,2.2,6.3,2.2,16.2,0.2
		l10.1-2.1l-11.6-15c-16.3-21.1-27.5-32.1-37.7-37.1C781.1,496.6,774.5,495.3,770.4,497.5 M370.5,498c-25.2,3.8-43,9-62.7,18.4
		c-54.3,25.9-90.8,78.9-96.4,140.2c-4.1,44.5,7.3,84.4,47.3,165.9c31.6,64.4,94.3,171.2,110.6,188.4c12.5,13.3,28.8,14,42.3,1.8
		c5.7-5.1,25.4-34.5,44.9-67c23.9-39.8,66.3-118.2,66.3-122.6c0-1,0.5-1.8,1.2-1.8s1.2,2.8,1.2,6.1c0,18.3,10.4,36.2,24.7,42.5
		c13.4,5.9,33.2,8,55.1,5.8c40.1-4.1,56.6-13.7,64.4-37.7c4-12.5,4.7-32.1,2.2-66.5c-3-42.2-4.1-61.7-5.9-108.8
		c-1.8-47.9-2.8-55.6-8.5-67.6c-4.7-10-10.6-16.2-19.2-20.4c-6.8-3.4-8.1-3.6-17.1-3.2c-8.4,0.4-10.5,0.9-15.4,3.9
		c-6.7,4.1-12.4,12.1-15.2,21.2c-2.7,9-2.4,31.2,0.7,56.3c1.4,10.8,2.8,22.5,3.1,26c0.3,3.5,0.9,7.5,1.2,8.9
		c0.5,2.4,0.2,2.5-8.5,2.5c-4.9,0-10.4,0.5-12.2,1.2s-3.4,1.3-3.6,1.3c-0.2,0-0.6-8.7-1-19.4c-1.1-33.3-6.3-56.1-18.1-79.8
		c-24.8-49.4-66-80.7-122.7-93c-8.3-1.8-16.3-2.5-33-2.8C383.9,497.7,372.4,497.7,370.5,498 M374,522.3c-32.5,4.9-55.5,13.8-77,29.6
		c-30.6,22.4-51.1,54.2-59.1,91.3c-3.4,15.7-3.7,45-0.7,60.2c9.2,46.7,55.1,140.2,121,246.3c18.2,29.3,32.1,49.8,33.9,49.8
		c3.8,0,55.3-84,80.4-131.3c25.7-48.3,36.5-69,40.7-78.1l4.6-9.8l-1.8-6.4c-1-3.5-2-13-2.4-21.1c-1-23.5,2.5-35.4,13.1-44.7
		c3-2.6,7.6-5.4,10.2-6.1s5.3-1.4,6.1-1.7c0.8-0.2,1.7-5.1,2.2-12.9c3.2-47.1-12.2-90.4-43.3-121.9c-21.1-21.3-44.3-33.5-77-40.5
		C413.6,522.7,382.6,521,374,522.3 M744.9,546.7c-2.2,1.1-5,3.4-6.2,5.1c-1.9,2.6-2,3.4-0.8,5.8c1.9,3.6,4,5.2,11.1,8.6
		c7.7,3.7,21.3,6.3,33.2,6.2c9.2,0,9.8-0.2,20.4-6l11-6l-12.1-3.2c-6.7-1.8-18.8-5.3-26.9-7.9C758.3,544.3,751.1,543.6,744.9,546.7
		 M850.8,562.2c-21.1,3.1-40.7,13.2-71.1,36.8c-33.6,26.1-54.4,54.2-66.1,89c-6.2,18.7-8.2,30.9-8.2,52.2
		c-0.1,27.2,3.8,48.8,12.9,72.2c17.6,45,53.2,79.4,98.7,95.5c24.7,8.7,44.5,12,73.1,12c34.8,0.1,62.9-5.2,92.3-17.1
		c25-10.2,37.2-18.3,56.7-37.4l13.6-13.3l7.8,2.5c14.9,4.9,34,2.7,46.6-5.4c8.6-5.5,16-14,21.1-24.1c8.6-17.4,7.1-31.8-4.7-44.1
		c-7.2-7.6-11.7-9.8-21.2-10.4c-9.5-0.7-16.1,1.3-28.2,8.4c-7.4,4.3-8.8,4.9-9.4,3.3c-0.4-1,0.2-7.9,1.3-15.3
		c5.2-34.2,6.5-46.1,7.2-65.5l0.7-20.8l-10.4-11.7c-24.3-27.3-52.9-55.3-90.2-76.5c-29.1-16.6-68.5-32.5-96.3-35.7
		C865,555.5,860.5,560.8,850.8,562.2 M373.4,573c-42.2,7.6-75.1,37.5-87.1,79c-2.2,7.7-2.6,11.6-2.5,27.5
		c0.1,16.6,0.4,19.5,3.2,28.7c9.5,31.2,29.3,54.8,57.5,68.6c40.3,19.7,90.3,11.2,122.2-20.8c25.5-25.6,37.1-60.9,31.1-94.9
		c-6.1-35-26.9-62.7-58.8-78.2c-6.5-3.1-16.2-6.8-21.6-8.1C404.8,571.7,384.9,570.9,373.4,573 M869.7,579.9
		c-10.3,2.7-23.2,12.3-29,21.4c-5.5,8.6-4,9.4,5.1,2.6c9.5-7.1,14.9-9.4,22.2-9.4c6,0,6.8,0.3,11.9,5c6.6,6.2,9.4,7.7,14,7.7
		c8,0,10.8-9.4,5.3-17.6c-3.2-4.7-12.3-9.6-19.7-10.6C877.1,578.7,872.6,579.1,869.7,579.9 M613.9,587c-2.3,1.2-5.4,4.2-6.9,6.6
		c-2.6,4.1-2.7,5.4-2.7,22.3c0,9.9,0.5,21.9,1,26.8l0.9,8.9l5.4,1.2c3,0.7,8.9,1.8,13.2,2.5c8,1.3,10.6,2.7,7,3.8
		c-1.8,0.6-21.1,3-23.9,3c-0.6,0-0.7,5.1-0.3,11.9c0.4,6.5,1.3,21.8,1.9,33.8c1.7,31.5,0.9,29,9.7,29.9c14.5,1.5,24,5.9,21.5,10
		c-0.9,1.4-5.8,1.8-26.8,2.3c-23.8,0.6-26.2,0.8-30.7,3.2c-10.3,5.4-14.6,18.4-8.4,25.1c6.4,6.8,18.1,10.7,39.9,13.4
		c12.5,1.5,15.6,2.5,15.6,5.2c0,2.2-4.7,4-10.5,4c-14,0-21.4,10.9-20.5,30.3c0.3,6.7,0.1,7.4-2,7.4c-1.6,0-3.1-1.6-4.9-5.2
		c-3.7-7.4-3.6-18.5,0.3-26.2c1.6-3.1,2.9-5.8,2.9-5.9c0-0.1-2.2-0.6-4.9-1c-2.7-0.5-7.6-1.8-10.8-3l-5.9-2.2l-6.2,3.2
		c-5.5,2.8-7.5,3.2-17.5,3.2l-11.3,0l-0.8,5.1c-1.2,8.1,0.3,24.4,2.8,31.2c7,18.4,20.8,23.5,56.4,21c44.6-3.1,56.1-10.1,59.5-36.2
		c1.4-11.1,1.5-45.5,0-63.5c-1.6-19.6-5.6-89-6.4-111c-1.4-36.7-3.8-47.9-11.8-56.1C631.3,584.6,622.2,582.6,613.9,587 M378.7,600.5
		c-1,1.4-1.8,4.1-1.8,6.1c0,7-1.2,8.8-7.6,11.6c-13.8,6.1-22.5,18.2-23.4,32.7c-1.4,21.7,8.8,32.4,38.9,40.8
		c18.8,5.2,24.9,8.2,27.8,13.5c2.2,4.2,1.5,8.2-2.1,12.3c-8.5,9.6-28.4,8.3-49.6-3.4c-9.8-5.4-11.4-4.7-16.2,6.9
		c-2,4.8-3.6,9.1-3.6,9.7c0,4.1,14.5,11.6,27.9,14.4c7.2,1.5,7.9,2.4,7.9,10.2c0,2.2,0.8,5.2,1.8,6.7c1.6,2.3,2.8,2.6,11.9,2.6
		c13.2,0,14.3-0.8,15-10.7c0.5-7.3,0.6-7.6,3.9-8.2c11.2-2.2,23.3-12.1,28.1-23c5.9-13.1,2.6-30.5-7.5-39.4
		c-5.7-5-13.6-8.3-29.3-12.4c-16.3-4.2-21.3-6.2-25.4-10.1c-4.1-3.9-5-8.3-2.8-13.6c4.3-10.4,24.3-11.4,44.7-2.3l7,3.1l2.7-2.8
		c3.9-4.1,9.2-14.5,8.4-16.6c-0.9-2.4-12.3-8-22.5-11.1l-8.3-2.5v-6.3c0-10.3-0.6-10.8-13.3-10.8
		C381.4,597.9,380.3,598.2,378.7,600.5 M833.4,667.2c-10.5,6.5-16.6,26.6-11.3,37.2c5.2,10.3,18.1,5.8,25.3-8.8
		c4.2-8.5,4.6-21.7,0.9-26.7C845.2,664.8,838.5,664,833.4,667.2 M1079.2,695.9c-0.1,12.7-6.5,65.3-9,73.9c-0.6,2.1-0.4,2.1,3.3-0.4
		c7.1-4.7,17.7-9.4,24.5-10.8l6.7-1.4v-6.5c0-7.9,7.6-19.4,2.4-32.3c-4-9.9-21.2-20.7-25.5-25.8l-2.4-2.9l0,6.5 M575.2,707.7
		c-4.9,3-8.3,7.6-9.9,13.3c-1.4,5.1-1.6,21.7-0.4,27.4l0.8,3.4l4.2-3.7c6.1-5.3,15.1-9.1,23.9-9.9c6.1-0.6,7.6-1.1,7-2.4
		c-0.4-0.9-1.3-7.7-2.1-15c-1.3-12.3-1.6-13.4-4.1-14.4C589.8,704.7,579.1,705.4,575.2,707.7 M538.3,718.6c-3,1.7-5.6,4.4-7.3,7.8
		c-2.6,5-2.7,6.1-2.2,24.3c0.6,21.4,2,27.3,8,33.4c2,2,4.8,4,6.4,4.4c3.2,0.8,16.8-0.1,18.7-1.2c0.8-0.5,0.1-3.1-2.1-7.4
		c-6.3-12.5-8.4-21.4-9-39c-0.4-9.7-0.1-17.9,0.6-20.5l1.2-4.3l-4.8,0C544.9,716,541,717.1,538.3,718.6 M927.8,724.1
		c-7,2.5-8,3.2-14.9,9.7c-5.1,4.8-6.6,8.6-2.9,7.1c8.2-3.2,21.1-5.5,29.2-5c12.4,0.7,17.9,3.9,22.8,13c2,3.8,4.2,7.1,4.8,7.3
		c4,1.3,1.9-16-2.9-23.1C957.1,722.8,942,719,927.8,724.1 M816,726.9c-11.2,4.1-16.9,16-12.8,26.7c5.2,13.5,29.7,26.1,45.2,23.2
		c6.6-1.2,4.6-3.9-6-8.1c-9.3-3.7-18.2-9.1-21.1-12.6c-5.2-6.3-4.8-16.2,0.7-17.6c5.3-1.3,17,0.5,27.6,4.2
		c13.5,4.8,15.6,5.3,15.6,3.4c0-2.9-11.8-12.9-19.4-16.4C836.6,725.3,823.6,724.1,816,726.9 M923.8,776.7
		c-19.6,5.6-39.1,28.3-42.8,49.7l-1.4,7.9l-8.6-0.8c-36.3-3.3-69.6-18.1-96-42.9c-5.8-5.4-11.3-9.8-12.3-9.8c-5.2,0-2.2,9.1,6.5,20
		c23.3,29,68.6,48.3,113.8,48.3c39.6,0,67.9-12.5,76-33.6c2.6-6.9,2.8-12.6,0.5-20.3C955,780,939.7,772.1,923.8,776.7 M919.7,789.7
		c-11.6,5.9-21.2,18.6-29,38.4l-2.5,6.2l8.6-0.5c15.8-1,22.4-6.7,26.3-22.6c1.6-6.2,2.9-7.6,4.2-4.1c0.8,2.1-1.1,16.8-2.6,20.5
		c-0.8,2-0.5,2.1,3.6,1.5c5.4-0.9,12.3-5.5,17.1-11.5c4.3-5.3,5.6-15.6,2.7-21.2c-3.5-6.7-7.2-9-15-9.4
		C927.1,786.6,924.9,787,919.7,789.7 M1090.5,795.8c-10.1,2.5-24,11.5-24,15.5c0,2.3,0,2.3,9.1-0.9c4.2-1.5,9.5-3,11.9-3.4l4.2-0.6
		l1.9,9.3c1,5.1,2.1,9.6,2.4,9.9c2.2,2.2,6.4-8.2,6.4-15.9c0-2.9,0.5-3.5,2.7-3.5c1.5,0,5.8,1.6,9.5,3.5c3.7,1.9,7.2,3.5,7.7,3.5
		c1.6,0,0.9-4-1.4-7.7C1116.1,797.4,1102,793,1090.5,795.8 M739.6,888.7c-1,9.1,1.6,21.8,6,30.1c5.4,10.2,17.8,21.4,31.1,28.2
		c13.5,6.9,22.2,9.8,38.2,13.1c32.6,6.5,67.5,5.7,94-2.1c10.7-3.2,12.3-4.5,10.8-8.6c-0.7-1.8-1.2-6.3-1.2-10.1
		c0-6.6-0.1-6.9-2.6-6.3c-7.1,1.7-32.2,2.5-46.7,1.6c-49.9-3.2-88.2-18.1-119.4-46.3c-4.1-3.7-7.9-6.7-8.4-6.7
		S740.1,884.7,739.6,888.7 M987.8,914.2c-5.4,2.7-10,4.9-10.3,5.1c-0.2,0.1,0.6,1.7,1.9,3.5c1.3,1.8,3.1,6.2,4.2,9.8
		c1.6,5.5,2.4,6.7,5.1,7.3c9.3,2.3,22.4,15.2,29.3,28.9c6.6,13.1,4.1,13.2-9.2,0.4c-5.5-5.3-12-11.1-14.6-13
		c-2.5-1.9-6.1-4.7-7.8-6.3c-1.7-1.6-3.4-2.7-3.7-2.4s-2.3,4-4.5,8.3l-4.1,7.8l2.9,5.8c3.7,7.5,16.6,19.4,26.7,24.7
		c21,11,46.3,11.9,67.6,2.4l6.6-3l-6.8-4.5c-15.3-10.2-30.9-28.5-44.2-52c-4-7.1-9.3-15-11.7-17.4c-3.9-4-14.4-10.4-16.8-10.2
		C998.1,909.3,993.2,911.5,987.8,914.2 M1028.5,916.5c2.8,3.5,7.9,11,11.4,16.6c8.8,14.2,22.1,31.7,28.5,37.3
		c9.2,8.1,20.6,12.3,28.6,10.6l3.7-0.8l-5.2-2.7c-9.3-4.8-16.8-13.8-23.8-28.8c-13.3-28.1-14.8-30.6-20-34.3
		c-4.6-3.2-5.9-3.5-16.6-3.9l-11.6-0.4L1028.5,916.5 M946.4,928.7c-13.4,3.4-15.2,4.9-15.2,12.2c0,5.8,3.6,11.3,9.6,14.7
		c3.6,2,5.8,2.4,11.3,2c11.4-0.8,18.4-8.1,18.4-19.1c0-5.6-0.4-6.6-3.7-9.7C962.3,924.8,961.7,924.8,946.4,928.7"/>
	<path class="st5" d="M965.1,579.3c-6.6,4.7-10.8,11.8-10.8,18.3c0,6.2,2.5,5.3,10,0.4c7.5-4.9,13.8-16.1,18.9-12.3
		c4.4,3.3,10.3,28.8,16.5,44.7c5.7,14.6,11.5,14.8,7.9,2.7c-3.2-10.6-3.4-28-7.4-37.8C992.3,576.2,978.4,569.9,965.1,579.3"/>
</g>
</svg>
