<?xml version="1.0" encoding="utf-8"?>
<!-- Generator: Adobe Illustrator 24.0.2, SVG Export Plug-In . SVG Version: 6.00 Build 0)  -->
<svg version="1.1" id="Capa_1" xmlns="http://www.w3.org/2000/svg" xmlns:xlink="http://www.w3.org/1999/xlink" x="0px" y="0px"
	 viewBox="0 0 1208 1024" style="enable-background:new 0 0 1208 1024;" xml:space="preserve">
<style type="text/css">
	.st0{fill-rule:evenodd;clip-rule:evenodd;fill:#FFD7C5;}
	.st1{fill:#FF0C0C;}
	.st2{fill:#632409;}
	.st3{fill-rule:evenodd;clip-rule:evenodd;fill:#3EC656;}
	.st4{fill-rule:evenodd;clip-rule:evenodd;fill:#FFFFFF;}
	.st5{fill-rule:evenodd;clip-rule:evenodd;fill:#F7B900;}
	.st6{fill-rule:evenodd;clip-rule:evenodd;fill:#060504;}
</style>
<g id="Capa_1_1_">
	<g>
		<path class="st0" d="M660.7,550l-48.1,13.8l-58.4,42.9l-40.5,52l-18.4,64.6l6.1,82.1l45.7,65.1c0,0,38,39.9,76.5,46.9
			s103.1,3,103.1,3s57.4-11.9,73.3-23.1c15.9-11.3,42.6-41.2,44.1-40.1c1.5,1.1,17.6,3.7,17.6,3.7s38.1-2.1,42.3-6.7
			c4.2-4.6,29.3-22.5,29.3-33.8s0.1-39.5-10.8-51.1c-10.9-11.7-38-4.8-38-4.8L865,775.1l-1.4-12.4l3.6-24.2l5-58.8l-26.8-32.3
			l-44.1-39L762,583.8l-41.6-19.7L661.8,550H660.7L660.7,550z"/>
		<path class="st0" d="M414.6,577l-18.8,13l-1.6,34.5l3.1,62.5l-7,8.6l-20.1,3.1l-11.5,9.3h-16.8l-18.9,7.4l-8.9,20.6l6.2,31.1
			l9.6,24.6c0,0,0.7,35.9,1,38.6s8.6,23.9,9.6,25.3c1,1.4,21.5,10.3,23.9,11s49.3-3.4,50.3-3.8c1-0.4,35.9-11.3,35.9-11.3
			s6.9-18.8,7.9-20.5s0-75.5,0-75.5l-4.2-59.2l-2-82.4l-8.6-22.9L414.6,577z"/>
	</g>
	<g>
		<path class="st1" d="M678.8,835.9c0,0,17-44.4,32.3-49c15.4-4.6,30-12.1,36.4,13.4C751.7,839.1,697.1,831.8,678.8,835.9z"/>
		<path class="st1" d="M157.8,517.6C38.7,533.2-4.6,675,49.4,766.5l84.8,168.2l38.3,57.7l15.2,11L218,985l101.9-194.2l-1.4-57.1
			l4.5-19.6l19.2-6l14.3-38.4c0,0-17.8-105.3-68.7-127.8C236.8,519.3,200.9,503.2,157.8,517.6z"/>
	</g>
	<g>
		<path class="st2" d="M573.8,491.6c3.1,1.4,8.3,3.7,14.8,6c9.7,3.5,13,3.9,17.4,7.2c4.6,3.5,3.4,5.1,9.6,13.4
			c4.7,6.3,6.4,6.6,17.6,19.2c6.2,7,8.7,10.3,7.7,13.2c-0.5,1.5-1.9,2.5-5.7,4.1c-9.6,4.1-13.7,3.2-20.5,5.8s-5.6,4.5-14.1,8.6
			c-2.2,1-8.6,4-16.8,5.3c-9.9,1.6-17.1-0.1-30.9-3.5c-19.6-4.8-22.1-8.9-22.9-10.4c-2.2-4.3-2-9.7-0.1-13.6
			c3.1-6.5,10.8-9.3,15-10.8c5.9-2.1,7.8-1.2,9.6-3.5c1.5-1.9,1.4-4-0.4-15.8c-1.6-10.6-2.1-11.8-1.4-14.5
			c1.6-6.9,7.2-10.8,8.4-11.6c6.8-4.8,16-5.3,16.7-3.5C577.8,487.9,577.3,489.1,573.8,491.6z"/>
		<path class="st2" d="M872.6,684.4c0.3,2.1-0.7,14-2.8,37.7c-1.7,19.5-2.6,29.3-5,35.6c-1.3,3.4-4.1,9.9-1.7,12.1
			c1.5,1.4,4.4,0.4,7.2-0.5c20.4-6.7,23.2-4,27.8-9c2.1-2.3,3.3-6.7,5.8-15.4c2.5-8.8,4-14,3.3-20.6c-0.6-7-3.2-11.9-5.7-16.5
			c-9-16.7-25.1-29.8-28.4-27.3C872.1,681.3,872.4,683.3,872.6,684.4z"/>
	</g>
	<g>
		<path class="st3" d="M171.6,583.1c0,0-48.2,48.5-46.4,82.1c1.8,33.6,6.9,81.1,8,81.6c1,0.5,46.7,24.3,47.7,24.3s37.7-3.1,40-4.4
			c2.3-1.3,34.6-47.7,34.6-47.7s-4.4-68.5-4.1-69.5s-10.3-40.3-10.3-40.3l-35.9-21.8L171.6,583.1z"/>
		<path class="st4" d="M854.6,389.6L822,362.4l-45.9-11.6l-37.8,3.6L712.5,366l-32,30.2c0,0-4.4,23.2-3.7,23.3
			c0.6,0.1,3.6,27,4.5,26.9s12.3,13.6,12.7,13.8c0.4,0.1,6.9,12,6.9,12l-40.1,77.3c0,0,40.1,8.7,40.5,8.7s52.7,22.1,52.7,22.1
			l28.6,15.7l43.4,34.2l43.6,42.6l25.5,27l13.4,17.2l9.4-4.9l42.7-58l25.6,25.1l45.7,6.5l24.1-8.7l25-32.2l7.9-32.3l-17-46.7
			l-26.4-17.2l-27.2-5.4l12.1-48.5l-8.5-52.9l-26-26.8l-50.3-31l-50.6-2.6L854.6,389.6z"/>
	</g>
	<g>
		<path class="st5" d="M535.3,867.3c0,0-9,29.7-9,30.8s18.4,34.2,19.4,34.9s52,28.8,52,28.8l55.3,4.3l61.3-2.8l21.8-4.5l26.3,5.1
			c0,0,14.7,17.1,15.8,17.8c1,0.7,21.8,20.1,23.9,20.5c2.1,0.3,44.5,2.1,44.5,2.1l26.2-4.2c0,0,13.5-13.3,16.9-13.6
			s20.8-10.3,20.8-10.3l-22.9-8.2l-20.8-45L844,902.4l-22.7-2.4l-23.7-1.4l-28,8.9c0,0-47.2,14.8-45.8,15.6s-24.2,2.6-24.2,2.6
			l-62.5-5.4l-36.2-11.4l-35.8-19.3L535.3,867.3z"/>
		<path class="st5" d="M564.9,140.8l-41.6,11.1l-44.6-30.1l11.4-49.4l15.4-17.5L550.4,33c0,0,79.5-9.7,85.4-10.7
			s69.7,10.5,69.7,11.8s36.9,48,36.9,48l3.9,60.2l7.5,38.7l28.2-2.5l14.4-12.4l19.7-40.8l21-14.1c0,0,18.9,11.6,19.7,13.6
			c0.8,2.1-0.8,24.8,0,25.9c0.8,1-20.5,14.4-19.4,14.4s10.3,14.7,11.6,15.9c1.3,1.3,22.8,7.2,22.8,7.2l10-25.9l11.8-43.9l1-34
			l16.7-27c0,0,43.1,1.5,45.7,5.4c2.6,3.9,13.9,35.6,15.7,36.2c1.8,0.5-14.4,43.4-14.4,44.6c0,1.3-9.3,28.6-9.8,29.4
			c-0.5,0.8-13.4,62.6-13.1,64.1c0.3,1.5-1.5,13.6-0.3,13.1c1.3-0.5,51.6-34.1,51.6-34.1s29.7-1.5,31.5,0.3s34.1,20.2,36.2,21
			s23,7.2,23,7.2s7.7,12.8,8.5,14.1c0.8,1.3,21.5,6.7,23,6.7s23.8-0.5,24.8,1s18.2,15.4,18.4,16.7c0.3,1.3,8.7,14.1,10,16.7
			s25.9,15.7,25.9,15.7s-5.7,27.7-5.7,28.4c0,0.8-26.4,24.8-26.4,24.8l-24.8-12.1l-6.7-4.6c0,0-18.4,11.6-18.9,12.6
			s-31.8,28.2-31.8,28.2l-13.4,7.7l-36.2-18l-53.4-33.2l-38.2-11.1L912,330l-34.6,0.5l-27.2-22.3c0,0-19.2-4.1-18.4-3.3
			s-15.9,13.2-16.5,13.4c-0.6,0.2-53.1-5.2-53.1-5.2l-30-41c0,0-57.4,37.4-55.9,36.4s-72.1,8.2-72.1,8.2l-31.3-6.2l-0.8-42.8
			L564.9,140.8z"/>
		<path class="st5" d="M139.3,435.6c1-0.3,17.5-31.8,18.8-31.8s2.1-20.8,2.1-22.2c0-1.4-15.1-52.4-15.1-52.4l-9.6-24.4
			c0,0-9.6-0.3-8.6-1.3c1-1-13,14.5-13,14.5s-22.5,8.2-23.6,8.2s-17.8-10.3-17.8-10.3l2.1-29.6l31.4-53.6c0,0,35.6-8.9,36.6-7.9
			s42.8,11,44.1,11.3c1.4,0.3,10.3-11.4,10.3-11.4V206c0,0,25.6-119.4,27.3-118s39.3-10.3,39.3-10.3s30.1,1,31.8,2.7
			c1.7,1.7,11,18.8,11.7,21.5s-1.5,36.9-1.5,36.9s-32,7.9-31.6,9.3c0.3,1.4,3.4,40.4,4.5,41c1.1,0.6,34.9-2.4,34.9-2.4l81.4-14.4
			c0,0,36.6,15.4,38,17.8c1.4,2.4,11.3,21.2,12.7,22.9c1.4,1.7-2.7,38.3-2.7,38.3l-5.5,15.1l14.7,21.8l18.1,15l15.5-25.4
			c0,0,45.4,7,46.1,8.2c0.7,1.2,3.4,28.2,3.4,28.2L518.6,331l-38.3-0.3L463.8,343l-34.5,0.7c0,0-33.8-20.1-33.8-19.1s-13,8.7-13,8.7
			l-1.7,25.8l-31.4,29.4l-55.6-12l-25.6-31.4l-10.3-18.5l-16.5,11.3l-18.8,5.1c0,0-12.3,2.1-11,2.7s3.8,53,4.8,53.7
			s-4.8,41.4-4.8,41.4l-18,17.6l-38,3.8L139.3,435.6z"/>
	</g>
	<g>
		<path class="st6" d="M593.4,9.1C529,15.9,487,40.9,474.1,80.2c-2.9,8.9-3.3,11.9-3.3,24c0,11.5,0.5,15.2,2.7,21.5
			c9.1,26.3,31.9,41.8,58.5,39.8c8.9-0.7,18.8-4,25.3-8.4c2.3-1.6,4.3-2.8,4.4-2.8c0.1,0,0.3,34.5,0.3,76.6l0.1,76.6l3.1,6.4
			c4,8.3,8.4,11,19.5,12.2c10.8,1.2,68.2-0.4,77.5-2.2c23.9-4.6,44-14.6,61.4-30.5l7.2-6.6l3.8,7.9c4.8,10,18.1,23.6,28.6,29.5
			c24.9,13.8,55,12.2,76.1-4.1l5.2-4l4.2,6.5c8.7,13.4,21.8,22,37,24.4c9.4,1.5,27.4,0.8,32.6-1.2c3-1.1,3.7-1,6.4,1.5
			c9.9,9.3,24.1,14.6,38.9,14.6c9.4,0,9.7,0.1,11.4,3.2c2.3,4.5,11.9,13.3,18.1,16.8c5.6,3.2,16.2,6.6,20.3,6.6
			c1.6,0,5.3,2.7,9.9,7.3c9.7,9.6,24,16.2,35.6,16.3c13.2,0.2,18.2-3.6,47.9-35.3c6.3-6.8,13.5-13.2,15.8-14.3l4.3-2l5.6,5
			c10.5,9.3,22,13,32.9,10.4c18.6-4.4,32.1-18.5,35.6-37.3c2.2-12.2-1.2-25.1-9.6-35.6c-4.2-5.4-15.4-13-21.7-14.9
			c-3.7-1.1-4.4-1.9-5-5.5c-1.8-11.1-14.1-22-29.2-26.2c-8.1-2.2-23-2.9-30.3-1.3l-4.1,0.9l-2.7-7.5c-3.4-9.6-10.8-17.9-19.5-22.1
			c-5.7-2.8-8-3.2-17.1-3.2c-10.3,0-10.5-0.1-15.7-4.3c-6.9-5.6-18.3-10.9-28.2-13.1c-24.3-5.2-48.8,2-69,20.1
			c-3.3,3-4.4,3.5-3.7,1.8c0.5-1.3,6.8-22.8,14-47.9s14.8-50.8,16.7-57.1c4.6-14.9,5.6-27.4,3.1-37.4c-7-27.2-32.1-45.2-56.8-40.7
			c-19.2,3.6-34.2,17-39.1,35.2c-2.5,9.3-1.8,17.4,2.2,24.4l2.8,5.1l-7.3,25.7c-4,14.2-8.5,30.4-9.9,36.1c-1.5,5.7-2.8,10.6-3,10.9
			c-0.2,0.3-3.4-2.4-7-5.8c-3.7-3.5-8-7.2-9.6-8.4l-2.9-2.1l4-3.1c11.6-8.9,17.6-18.5,18.2-29.8c1.2-18.1-11.2-32.1-29.4-33.6
			c-15.6-1.3-23.9,4.1-36.6,23.2c-10,15-13.1,21.3-14.1,28.7c-0.7,4.9-1.1,5.4-8.9,10.2c-4.5,2.8-10.7,7.1-13.7,9.4
			c-3,2.4-5.8,4.3-6.1,4.3s-0.6-9.8-0.6-21.7c0-46.4-7.3-76.8-23.7-100C719.9,28.8,691.3,13.7,653.7,9
			C642.4,7.6,606.6,7.7,593.4,9.1 M594.4,33.4c-14,1.4-36,5.9-47.4,9.7c-25.8,8.6-41.2,20.7-49.9,39.2c-3,6.4-3.2,7.9-3.2,21.3
			c0,12.8,0.3,15,2.6,19.2c3.9,7.3,8.7,12.2,15.5,16c11.9,6.5,27.5,3.8,37.9-6.6c5.4-5.4,8-11.9,8-19.9c0-9.2-2.9-15.2-10.2-21.3
			c-8.9-7.5-7.5-12.8,4.7-18.7c6.6-3.2,23.2-7.1,27.7-6.5l1.9,0.4l2,119.2V305h24.8c36.7-0.5,52.9-2.5,71.2-9.6
			c22-8.5,39.1-28.6,47.6-56c10.9-35.3,12.1-106.7,2.3-142.5c-6.5-23.9-20.8-42-40.9-52.3c-12-6.1-18.7-8.2-34-10.7
			C642.8,31.8,611.9,31.6,594.4,33.4 M251.7,63.7c-8,2-11.3,3.5-18.2,8c-25.5,16.5-36.9,50.7-47.1,142.8l-1.4,12.2l-9.4-4.9
			c-13.2-6.8-21.1-8.9-34.2-9c-23-0.1-41.7,11-57,33.9c-7,10.5-16.9,29.2-21,39.9c-4.2,10.9-4.6,26.1-0.9,34.1
			c12,25.8,44.4,28.8,62,5.6c3.2-4.2,4.8-5.5,5.4-4.4c0.9,1.7,25.3,77,25.3,78.2c0,0.4-2.6,1.6-5.7,2.7
			c-26.6,9.5-26.8,46.3-0.4,63.8c27.9,18.5,68.2,5.8,79.8-25.2c5.8-15.5,5.8-29,0.1-62.9c-1.9-11-3.4-20.3-3.4-20.7
			c0-0.5,2.3-0.7,5-0.4c8.5,0.7,14.6-1.7,20.7-8c5.3-5.5,5.6-5.6,6.5-3.1c2.2,5.6,15.8,24.8,22.4,31.8c7.3,7.6,18.8,16,26.3,19
			c31.1,12.9,68.7,0.2,82.6-27.8c4.3-8.6,4.3-9.1,4.3-21.8c0-9.1,0.4-13.2,1.4-13.6c0.8-0.3,4.3,2.2,7.8,5.6
			c11.7,11.3,25.7,16.9,42.1,16.9c15.6,0,27.2-4.1,35.1-12.2c3.8-3.9,4.2-4.1,8.5-3c18.9,4.8,35.1,1,47.3-11.1
			c7.6-7.6,11.2-16.1,11.3-26.1c0.4-40-60.1-56-78.5-20.9c-2.8,5.3-3.9,6.4-6.4,6.4c-3,0-9.1-5.6-9.1-8.4c0-0.7-1.8-5-4.1-9.7
			l-4.1-8.4l3.2-5.6c17.3-29.6,13-62.2-10.8-81.5c-16.7-13.5-37.2-18.1-63.3-14.3c-13.7,2-70.4,15.7-77.5,18.6
			c-2.4,1-5.2,2.6-6.2,3.5c-1.7,1.5-2.1,0.4-5-11.3c-1.7-7.1-3.1-13.3-3.1-13.7s3.6-1.8,7.9-3.1c36.5-11.1,47.5-50.1,21.4-75.7
			c-7.2-7-18.8-13.4-29.8-16.2C273.6,61.8,259.7,61.7,251.7,63.7 M918.1,68.8c-7.2,2.5-15.5,10.5-16.6,16c-0.5,2.7,0.1,3.8,3.6,6.9
			c4,3.5,4.3,4,4.2,10.4c-0.1,6.6-12.2,51.5-27.2,100.8c-8.2,26.9-19,70.4-20.5,81.7c-2,16.2,0.8,24.6,11.1,33.7
			c6.4,5.6,10.8,7,22.8,7c12.3,0,13.1-0.6,9.7-7.1c-2.4-4.5-2.7-6.6-2.6-17.2c0.2-17.6,6-41.6,23.1-95.7c5.8-18.3,21-71.3,27.6-95.8
			c1.9-7,2.5-11.5,2-15.6C953.3,75,935.1,62.9,918.1,68.8 M630.2,106.5c0.4,12.6,0.8,52.5,0.8,88.6v65.7l8.7-0.7
			c22.6-1.7,35.7-16.6,41.5-47.1c4.6-24.2,4.6-75,0-92.9c-5.9-22.9-19.4-34.6-42-35.9l-9.7-0.6L630.2,106.5 M254.4,87.4
			c-25.3,9.1-33.7,34-46.5,138.8c-2,16-4,30.2-4.6,31.7c-2,5-6.3,3.4-28-10.2c-15.8-9.9-25.3-13.1-36.4-12.4
			c-19.3,1.4-31,12.9-48.2,47.7c-8,16.2-9.9,23.4-7.4,29.4c0.8,2,2.9,4.3,4.7,5.2c11,5.7,21.4-3.9,29.4-26.9
			c2.2-6.2,4.8-11.9,5.9-12.7c2.5-1.8,8.5-1.8,10.9,0c4.5,3.4,16,32.7,31.9,81.6c10.1,30.6,13.3,44,12.2,49.6
			c-1.1,5.4-6.2,9.8-14,12c-8.5,2.4-11.9,5.7-11.9,11.8c0,7.8,6.8,15.7,16.1,18.8c5.1,1.7,15.4,1.7,21.1,0c6.5-1.9,14-9,17.2-16.2
			c7.6-17.2,2.5-55-15.1-113.4c-2.5-8.4-4.6-15.5-4.6-15.9s7.3,4.6,16.3,11.1c24.8,18,26,18.6,29.3,17.2c1.8-0.8,3.3-2.9,4.1-5.7
			c1.4-5,8.7-46.9,9.9-57.4c0.5-3.8,1.1-7.4,1.4-7.9s3,6.3,6.1,15.1c23.6,68.7,42.7,95.4,71.5,100.6c23.3,4.2,46.3-11.6,46.3-31.9
			v-6l-5.5,2.5c-4.4,2-7.7,2.5-16.5,2.6c-10.6,0-11.3-0.1-17.8-4c-3.7-2.2-8.5-6.1-10.6-8.7c-13.8-16.7-30.9-61.4-52.6-137.3
			c-8.6-29.9-16.6-61.9-15.7-62.4c0.1-0.1,4.6,0.4,10,1c12.3,1.4,20.9-0.2,28.5-5.3c17.6-11.8,13-34.2-8.7-42.4
			C275.2,84.4,262.7,84.4,254.4,87.4 M831.2,122.4c-4,3-19.2,25.7-19.2,28.6s4.2,8,6.5,8c0.6,0,2.4-1.4,4-3
			c1.5-1.7,7.1-6.4,12.3-10.5s10.1-8.4,10.7-9.6c2.1-3.9,1.4-9.8-1.5-12.6C840.9,120.6,834.3,120,831.2,122.4 M796.9,179.2
			c-25.9,7.3-47.8,40.1-49.4,74.4c-0.7,14.3,0.8,22.5,5.6,32.1c4.3,8.6,11.7,15.5,21.6,20.1c6.8,3.2,9.2,3.7,19.8,4.1
			c13.8,0.5,21.5-1.6,29.5-8c16.3-13,29.8-48.8,29.8-78.9c0-12.7-0.3-14.5-3.1-20.4c-6.8-14.6-21.3-23.9-38.2-24.7
			C806.5,177.6,801.1,178,796.9,179.2 M366.5,186.1c-14.7,2.9-59.7,13.8-60.4,14.6c-0.2,0.2,2.4,10.6,5.9,22.9
			c3.5,12.4,8.4,30,11,39.2c4.9,17.6,15.7,49.3,18.6,55.1c1,1.9,3.5,4.9,5.5,6.6c4.4,3.7,8.7,3.6,17.7-0.4l5.5-2.5l-0.6-14.7
			c-0.4-8.8-1.5-18.1-2.9-23l-2.2-8.4l4.6-1.3c2.6-0.7,6.9-0.9,9.7-0.5c6.7,1,11.2,5.7,17.7,18.1c8.3,16,12.4,22,19.2,29
			c8.6,8.7,14.7,11.6,25.7,12.2c14.7,0.8,22.6-2.7,26.7-11.8c2-4.5,2.9-11.2,1.6-12.5c-0.3-0.3-3.3-0.2-6.6,0.4
			c-13.2,2.1-19.2-2.6-29-22.5c-7.3-14.7-12.7-21.6-19.4-25l-4.7-2.4l6.8-4.3c12.2-7.7,18.1-18.5,18.2-33.6
			c0.2-15.3-7.5-26.8-22.3-33.8C402.3,182.5,387,182,366.5,186.1 M354.6,209.3l-7.9,1.9l0.7,3.6c0.4,2,2.6,10.2,4.8,18.2
			c4.6,16.7,4.2,16.3,15.9,13.2c14.6-3.9,21.4-10.8,21.5-21.5C389.8,210.6,375.7,204.4,354.6,209.3 M803.3,213.7
			c-10.6,4.7-21.3,27.1-21.3,44.4c0,15.1,11,23.9,21.5,17.5c7.8-4.8,16.5-30.1,16.5-48.1c0-8.7-1.1-11.3-5.8-13.7
			C810.2,211.7,807.8,211.6,803.3,213.7 M985.6,228.6c-8.9,2.9-18.4,8.6-26.1,15.4c-12.7,11.4-25.4,31.9-29.3,47.1
			c-2.3,9.1-2.3,23.6,0,29.2c7.3,17.5,32.8,23.9,53.9,13.7c3-1.5,5.5-2.4,5.4-2c0,0.4-0.5,3-1.1,5.9c-0.8,4.1-0.6,6.2,1.1,9.8
			c3.5,7.9,16.3,17.9,22.6,17.9c4,0,6.3-3.5,5.5-8.5c-1.4-8.6,5.8-21.5,25.3-45.5c19.4-23.8,35.4-45.4,35.4-47.8
			c0-3.8-3.4-10.7-7.2-14.6c-4.8-5-9.6-5.7-19.9-3.1l-8.4,2.1l-7.3-6.5c-8.8-7.8-15.6-11.7-24.7-14.1
			C1001.7,225.3,995.2,225.5,985.6,228.6 M1004.6,257.6c-18.4,5.9-41,40.9-34.4,53.7c0.8,1.6,3.4,3.8,5.8,5c3.6,1.8,5,1.9,9.2,0.8
			c2.7-0.7,6.6-2.5,8.5-4c2.9-2.2,32.3-45.1,33.1-48.4c0.5-2-7.9-7.4-12.5-8.1C1011.8,256.3,1007.5,256.7,1004.6,257.6
			 M1104.8,278.4c-3.6,1.4-3.9,2.2-1.4,4.3c1,0.8,1.7,1.9,1.7,2.5s-5.6,6.9-12.4,14.1c-31.5,32.9-52.9,57.7-56.7,65.8
			c-3,6.2-3,10,0,13.8c3.5,4.5,15.6,10.1,21.6,10.1h5.2l21.5-21.8c22.4-22.8,29.6-28.2,39.1-29.6c7.5-1.1,10.2,0.1,19.4,8.8
			c7.3,6.9,9.1,8,12.7,8c8.4,0,16.4-5.6,20.3-14.5c5.6-12.1-1.3-25.7-15.6-31.2c-4.2-1.6-7.6-1.9-16.2-1.5l-10.9,0.6l3.3-4.6
			c8-11,6.3-19.1-4.7-23.5C1124.6,276.7,1110.5,276.1,1104.8,278.4 M492.5,288.3c-5,3.3-7.2,7.8-7.2,14.6c0,7.3,3.3,12.6,9.6,15.4
			c8.2,3.7,16.8,2.3,23.5-3.9c7.6-6.9,6.4-17.7-2.7-24.6C510,285.3,498.2,284.5,492.5,288.3 M749.6,340.3
			c-33.8,3.9-61.2,22.2-75.1,50.1c-4.8,9.7-8.1,21.7-8.1,30.1c-0.1,15,6.4,30.5,17.8,42.8l7.5,8.1l-4.9,7.6
			c-14.5,22.6-38.1,56.8-39.3,56.8c-0.7,0-4.6-4.4-8.7-9.8c-19.4-25.9-29.8-36-44.6-43.4c-20.8-10.3-38.7-7-47.2,8.8
			c-4.5,8.3-5.4,19.6-2.1,29.1c1.2,3.7,2,6.9,1.7,7.2s-1.9,0.6-3.6,0.6c-8,0.1-20.6,9.6-23.8,17.9c-2.9,7.6-1.6,14.1,4.2,20.6
			c6,6.8,15.5,11.4,32,15.5l13.1,3.3l-6.7,5c-10.5,7.8-33.7,31.8-41.6,43.1c-19.5,27.7-30.8,59.9-34,97.1
			c-3.5,40.1,9.2,88.8,32.4,125l5.9,9.3l-1.9,5.1c-1.4,3.8-2,8.8-2,19.4c0,12.2,0.4,15.7,2.6,21.9c11.4,32.4,42.7,54.1,90.7,62.6
			c11.4,2,18.4,2.5,39.8,2.5c29.7,0.1,39.2-1.3,60.4-8.4l13.1-4.4l5.7,2.6c4.2,2,7.8,2.6,14,2.6c8.3,0,8.4,0.1,10.3,3.8
			c4.4,8.7,14.6,19.1,26,26.9c17.3,11.6,33.5,16.1,54.6,15.2c7.6-0.3,17-1.5,20.7-2.5c9.8-2.7,26.4-10.9,34.8-17.1
			c3.9-2.9,10.4-6.9,14.5-8.9c11.4-5.7,14.9-8.7,14.9-13.1c0-5.3-1.8-6.5-9.4-6.5c-3.6,0-8.1-0.5-9.9-1.2
			c-10.9-4.1-19.4-14.9-27.5-34.6c-3-7.3-6.4-15.3-7.7-17.7c-3.5-7-10.8-14.1-17.5-17.1c-5.2-2.4-7.9-2.7-19-2.7
			c-7.2,0-13-0.3-13-0.8c0-0.4,2.5-2.2,5.5-4s9.9-7.6,15.2-12.9l9.7-9.7l5.6,1.3c3.1,0.7,9.6,1.4,14.6,1.4
			c28.8,0.2,54.2-15.6,66.2-41.3c8.1-17.2,8.4-32.3,1-47.5c-3.9-8-13.4-17.5-20.5-20.6l-4.4-2l1.6-7.1c4.7-20.5,24.2-56,40.5-73.6
			l7.6-8.2l3.9,4.6c5.2,6.2,16.8,13.4,27.7,17.2c7.9,2.7,10.9,3.1,23.9,3.2c13.6,0.1,16-0.2,25.3-3.3c23.3-7.7,42.5-26.5,51.2-50.5
			c2.8-7.6,3.1-10.1,3.1-24c0-13.2-0.4-17-2.7-24.2c-9.1-28.8-28.1-47.8-55.3-54.9c-4.3-1.1-7.9-2.1-8-2.2c-0.1-0.1,1.4-6.4,3.4-14
			c3.4-12.8,3.7-15.2,3.6-32.2c0-16.8-0.3-19.4-3.2-28.8c-4.2-13.8-10.7-25.9-20-37.7c-23.1-28.7-56.3-45.7-97.4-49.8
			c-17.3-1.7-33.9,0-48.7,5l-10.3,3.4l-5.2-5.9c-16.3-18.5-44.1-31.3-75.3-34.5C764.2,338.9,762,338.9,749.6,340.3 M753,357.4
			c-19.7,1.9-36.1,9.6-50.4,23.6c-7.5,7.4-10.4,11.2-13.9,18.4c-4.3,8.9-4.4,9.6-4.4,21.8c0,14.9,1.9,20.1,10.7,29.1l5.2,5.4
			l5.9-12.1c5.8-11.9,6-12.1,10.2-12.4c3.7-0.3,4.5,0.1,5.7,2.7c1.1,2.5,0.9,4.5-1.2,11.9c-6,20.2-11.7,30.9-37.5,70.7l-16.9,25.9
			l4.9,0.9c42.9,16.1,86.3,33,127.2,59.9c46.7,37.9,75,70,108.2,104.7l2.1,5.1l5.2-10.3c14.1-27.8,35.9-51.3,65.8-70.8
			c7.5-4.9,10.2-6.1,13.3-5.8c3.4,0.3,3.9,0.8,4.2,4c0.3,3.1-0.7,4.8-7.1,11.6c-4.1,4.3-9.6,9.2-12.2,10.8c-2.6,1.6-4.7,3.2-4.7,3.6
			c-0.1,2,9.7,11.4,14.9,14.1c10.6,5.8,27.9,8,41.8,5.4c26.8-5.1,50.8-33,50.7-59.3c-0.1-22.5-14.2-47.4-32.2-57
			c-9.5-5.1-22.6-8.3-34.3-8.3c-5.3,0-9.9-0.4-10.2-1c-0.3-0.5,2.3-7.7,5.9-15.9c15-34.6,15.9-56.1,3.3-82
			c-15.2-31.2-46.8-53.9-86.6-61.6c-11.7-2.3-37.3-2-46.6,0.6c-15.6,4.3-31.5,14-40,24.3c-3.5,4.3-5.1,5.3-7.4,5.1
			c-6.4-0.7-3.8-10,6.4-22.3l5.3-6.5l-3.9-4.1C820.2,366.4,785.4,354.3,753,357.4 M566.2,496.1c-10.8,5.8-9.9,21.2,2,33
			c7.9,7.9,26.9,19.2,40.9,24.4c5.9,2.2,6.3,2.2,16.2,0.2l10.1-2.1l-11.6-15c-16.3-21-27.4-32-37.6-37
			C576.9,495.3,570.3,494,566.2,496.1 M167.4,496.6c-25.1,3.8-42.9,9-62.5,18.3c-54.2,25.8-90.5,78.7-96.1,139.8
			C4.7,699.2,16.1,739,56,820.3c31.5,64.2,94,170.7,110.3,187.9c12.5,13.3,28.7,14,42.2,1.8c5.7-5.1,25.3-34.4,44.8-66.8
			c23.8-39.7,66.1-117.9,66.1-122.3c0-1,0.5-1.8,1.2-1.8s1.2,2.8,1.2,6.1c0,18.2,10.4,36.1,24.6,42.4c13.4,5.9,33.1,8,54.9,5.8
			c40-4.1,56.4-13.7,64.2-37.6c4-12.5,4.7-32,2.2-66.3c-3-42.1-4.1-61.5-5.9-108.5c-1.8-47.8-2.8-55.4-8.5-67.4
			c-4.7-10-10.6-16.2-19.1-20.3c-6.8-3.4-8.1-3.6-17.1-3.2c-8.4,0.4-10.5,0.9-15.4,3.9c-6.7,4.1-12.4,12.1-15.2,21.1
			c-2.7,9-2.4,31.1,0.7,56.1c1.4,10.8,2.8,22.4,3.1,25.9s0.9,7.5,1.2,8.9c0.5,2.4,0.2,2.5-8.5,2.5c-4.9,0-10.4,0.5-12.2,1.2
			c-1.8,0.7-3.4,1.3-3.6,1.3s-0.6-8.7-1-19.3c-1.1-33.2-6.3-55.9-18.1-79.6c-24.7-49.3-65.8-80.5-122.4-92.7
			c-8.3-1.8-16.3-2.5-32.9-2.8C180.8,496.3,169.3,496.3,167.4,496.6 M170.9,520.9c-32.4,4.9-55.3,13.8-76.8,29.5
			c-30.5,22.3-51,54.1-58.9,91c-3.4,15.7-3.7,44.9-0.7,60C43.7,748,89.4,841.2,155.2,947c18.1,29.2,32,49.7,33.8,49.7
			c3.8,0,55.1-83.8,80.2-130.9c25.6-48.2,36.4-68.8,40.6-77.9l4.6-9.8l-1.8-6.4c-1-3.5-2-13-2.4-21c-1-23.4,2.5-35.3,13.1-44.6
			c3-2.6,7.6-5.4,10.2-6.1c2.6-0.7,5.3-1.4,6.1-1.7c0.8-0.2,1.7-5.1,2.2-12.9c3.2-47-12.2-90.2-43.2-121.6
			c-21-21.2-44.2-33.4-76.8-40.4C210.4,521.3,179.5,519.6,170.9,520.9 M540.8,545.2c-2.2,1.1-5,3.4-6.2,5.1c-1.9,2.6-2,3.4-0.8,5.8
			c1.9,3.6,4,5.2,11.1,8.6c7.7,3.7,21.2,6.3,33.1,6.2c9.2,0,9.8-0.2,20.3-6l11-6l-12.1-3.2c-6.7-1.8-18.7-5.3-26.8-7.9
			C554.2,542.8,547,542.1,540.8,545.2 M646.4,560.7c-21,3.1-40.6,13.2-70.9,36.7c-33.5,26-54.3,54.1-65.9,88.8
			c-6.2,18.6-8.2,30.8-8.2,52.1c-0.1,27.1,3.8,48.7,12.9,72c17.6,44.9,53.1,79.2,98.4,95.2c24.6,8.7,44.4,12,72.9,12
			c34.7,0.1,62.7-5.2,92-17.1c24.9-10.2,37.1-18.2,56.5-37.3l13.6-13.3l7.8,2.5c14.9,4.9,33.9,2.7,46.5-5.4c8.6-5.5,16-14,21-24
			c8.6-17.4,7.1-31.7-4.7-44c-7.2-7.6-11.7-9.8-21.1-10.4c-9.5-0.7-16.1,1.3-28.1,8.4c-7.4,4.3-8.8,4.9-9.4,3.3
			c-0.4-1,0.2-7.9,1.3-15.3c5.2-34.1,6.5-46,7.2-65.3l0.7-20.7l-10.4-11.7c-24.2-27.2-52.8-55.1-90-76.3c-29-16.6-68.3-32.4-96-35.6
			C660.6,554,656.1,559.3,646.4,560.7 M170.3,571.4c-42.1,7.6-74.9,37.4-86.9,78.8c-2.2,7.7-2.6,11.6-2.5,27.4
			c0.1,16.6,0.4,19.4,3.2,28.6c9.5,31.1,29.2,54.6,57.3,68.4c40.2,19.6,90.1,11.2,121.9-20.7c25.4-25.5,37-60.7,31-94.6
			c-6.1-34.9-26.8-62.5-58.6-78c-6.5-3.1-16.2-6.8-21.5-8.1C201.6,570.1,181.8,569.3,170.3,571.4 M665.3,578.3
			c-10.3,2.7-23.1,12.3-28.9,21.3c-5.5,8.6-4,9.4,5.1,2.6c9.5-7.1,14.9-9.4,22.1-9.4c6,0,6.8,0.3,11.9,5c6.6,6.2,9.4,7.7,14,7.7
			c8,0,10.8-9.4,5.3-17.6c-3.2-4.7-12.3-9.6-19.6-10.6C672.6,577.1,668.2,577.5,665.3,578.3 M410.2,585c-2.3,1.2-5.4,4.2-6.9,6.6
			c-2.6,4.1-2.7,5.4-2.7,22.2c0,9.9,0.5,21.8,1,26.7l0.9,8.9l5.4,1.2c3,0.7,8.9,1.8,13.2,2.5c8,1.3,10.6,2.7,7,3.8
			c-1.8,0.6-21,3-23.8,3c-0.6,0-0.7,5.1-0.3,11.9c0.4,6.5,1.3,21.7,1.9,33.7c1.7,31.4,0.9,28.9,9.7,29.8c14.5,1.5,23.9,5.9,21.4,10
			c-0.9,1.4-5.8,1.8-26.7,2.3c-23.7,0.6-26.1,0.8-30.6,3.2c-10.3,5.4-14.6,18.3-8.4,25c6.4,6.8,18.1,10.7,39.8,13.4
			c12.5,1.5,15.6,2.5,15.6,5.2c0,2.2-4.7,4-10.5,4c-14,0-21.3,10.9-20.4,30.2c0.3,6.7,0.1,7.4-2,7.4c-1.6,0-3.1-1.6-4.9-5.2
			c-3.7-7.4-3.6-18.4,0.3-26.1c1.6-3.1,2.9-5.8,2.9-5.9c0-0.1-2.2-0.6-4.9-1c-2.7-0.5-7.6-1.8-10.8-3l-5.9-2.2l-6.2,3.2
			c-5.5,2.8-7.5,3.2-17.5,3.2h-11.3l-0.8,5.1c-1.2,8.1,0.3,24.3,2.8,31.1c7,18.3,20.7,23.4,56.2,20.9C438.2,853,449.6,846,453,820
			c1.4-11.1,1.5-45.4,0-63.3c-1.6-19.5-5.6-88.8-6.4-110.7c-1.4-36.6-3.8-47.8-11.8-55.9C427.5,582.6,418.5,580.6,410.2,585
			 M176.1,598.9c-1,1.4-1.8,4.1-1.8,6.1c0,7-1.2,8.8-7.6,11.6c-13.8,6.1-22.4,18.1-23.3,32.6c-1.4,21.6,8.8,32.3,38.8,40.7
			c18.7,5.2,24.8,8.2,27.7,13.5c2.2,4.2,1.5,8.2-2.1,12.3c-8.5,9.6-28.3,8.3-49.5-3.4c-9.8-5.4-11.4-4.7-16.2,6.9
			c-2,4.8-3.6,9.1-3.6,9.7c0,4.1,14.5,11.6,27.8,14.4c7.2,1.5,7.9,2.4,7.9,10.2c0,2.2,0.8,5.2,1.8,6.7c1.6,2.3,2.8,2.6,11.9,2.6
			c13.2,0,14.3-0.8,15-10.7c0.5-7.3,0.6-7.6,3.9-8.2c11.2-2.2,23.2-12.1,28-22.9c5.9-13.1,2.6-30.4-7.5-39.3
			c-5.7-5-13.6-8.3-29.2-12.4c-16.3-4.2-21.2-6.2-25.3-10.1c-4.1-3.9-5-8.3-2.8-13.6c4.3-10.4,24.2-11.4,44.6-2.3l7,3.1l2.7-2.8
			c3.9-4.1,9.2-14.5,8.4-16.6c-0.9-2.4-12.3-8-22.4-11.1l-8.3-2.5V607c0-10.3-0.6-10.8-13.3-10.8
			C178.8,596.3,177.7,596.6,176.1,598.9 M629.1,665.4c-10.5,6.5-16.6,26.5-11.3,37.1c5.2,10.3,18.1,5.8,25.2-8.8
			c4.2-8.5,4.6-21.6,0.9-26.6C640.8,663,634.2,662.2,629.1,665.4 M875.1,694.6c-0.1,12.5-6.4,63.9-8.9,72.4
			c-0.6,2.1-0.4,2.1,3.2-0.4c7-4.6,17.3-9.2,24-10.6l6.6-1.4v-6.4c0-7.8,7.5-19,2.4-31.7c-3.9-9.7-20.8-20.3-25-25.3l-2.4-2.9v5.5
			 M371.6,705.8c-4.9,3-8.3,7.6-9.9,13.3c-1.4,5.1-1.6,21.6-0.4,27.3l0.8,3.4l4.2-3.7c6.1-5.3,15.1-9.1,23.8-9.9
			c6.1-0.6,7.6-1.1,7-2.4c-0.4-0.9-1.3-7.7-2.1-15c-1.3-12.3-1.6-13.4-4.1-14.4C386.1,702.8,375.5,703.5,371.6,705.8 M334.8,715.5
			c-3,1.7-5.6,4.4-7.3,7.8c-2.6,5-2.7,6.1-2.2,24.2c0.6,21.3,2,27.2,8,33.3c2,2,4.8,4,6.4,4.4c3.2,0.8,16.8-0.1,18.6-1.2
			c0.8-0.5,0.1-3.1-2.1-7.4c-6.3-12.5-8.4-21.3-9-38.9c-0.4-9.7-0.1-17.9,0.6-20.4l1.2-4.3h-4.8C341.4,712.9,337.5,714,334.8,715.5
			 M723.2,722.1c-7,2.5-8,3.2-14.9,9.7c-5.1,4.8-6.6,8.6-2.9,7.1c8.2-3.2,21-5.5,29.1-5c12.4,0.7,17.9,3.9,22.7,13
			c2,3.8,4.2,7.1,4.8,7.3c4,1.3,1.9-16-2.9-23C752.4,720.8,737.4,717,723.2,722.1 M611.7,724.9c-11.2,4.1-16.9,16-12.8,26.6
			c5.2,13.5,29.6,26,45.1,23.1c6.6-1.2,4.6-3.9-6-8.1c-9.3-3.7-18.1-9.1-21-12.6c-5.2-6.3-4.8-16.2,0.7-17.6
			c5.3-1.3,17,0.5,27.5,4.2c13.5,4.8,15.6,5.3,15.6,3.4c0-2.9-11.8-12.9-19.3-16.4C632.3,723.3,619.3,722.1,611.7,724.9
			 M719.2,774.6c-19.5,5.6-39,28.2-42.7,49.6l-1.4,7.9l-8.6-0.8c-36.2-3.3-69.4-18.1-95.7-42.8c-5.8-5.4-11.3-9.8-12.3-9.8
			c-5.2,0-2.2,9.1,6.5,19.9c23.2,28.9,68.4,48.2,113.5,48.2c39.5,0,67.7-12.5,75.8-33.5c2.6-6.9,2.8-12.6,0.5-20.2
			C750.3,777.9,735.1,770,719.2,774.6 M715.1,787.5c-11.6,5.9-21.1,18.5-28.9,38.3l-2.5,6.2l8.6-0.5c15.8-1,22.3-6.7,26.2-22.5
			c1.6-6.2,2.9-7.6,4.2-4.1c0.8,2.1-1.1,16.8-2.6,20.4c-0.8,2-0.5,2.1,3.6,1.5c5.4-0.9,12.3-5.5,17.1-11.5
			c4.3-5.3,5.6-15.6,2.7-21.1c-3.5-6.7-7.2-9-15-9.4C722.5,784.5,720.3,784.9,715.1,787.5 M885.5,793.6
			c-10.1,2.5-23.9,11.5-23.9,15.5c0,2.3,0,2.3,9.1-0.9c4.2-1.5,9.5-3,11.9-3.4l4.2-0.6l1.9,9.3c1,5.1,2.1,9.6,2.4,9.9
			c2.2,2.2,6.4-8.2,6.4-15.9c0-2.9,0.5-3.5,2.7-3.5c1.5,0,5.8,1.6,9.5,3.5s7.2,3.5,7.7,3.5c1.6,0,0.9-4-1.4-7.7
			C911,795.2,896.9,790.8,885.5,793.6 M535.5,886.3c-1,9.1,1.6,21.7,6,30c5.4,10.2,17.8,21.3,31,28.1c13.5,6.9,22.1,9.8,38.1,13.1
			c32.5,6.5,67.3,5.7,93.7-2.1c10.7-3.2,12.3-4.5,10.8-8.6c-0.7-1.8-1.2-6.3-1.2-10.1c0-6.6-0.1-6.9-2.6-6.3
			c-7.1,1.7-32.1,2.5-46.6,1.6c-49.8-3.2-88-18.1-119.1-46.2c-4.1-3.7-7.9-6.7-8.4-6.7C536.8,879.2,536,882.3,535.5,886.3
			 M783,911.7c-5.4,2.7-10,4.9-10.3,5.1c-0.2,0.1,0.6,1.7,1.9,3.5c1.3,1.8,3.1,6.2,4.2,9.8c1.6,5.5,2.4,6.7,5.1,7.3
			c9.3,2.3,22.3,15.2,29.2,28.8c6.6,13.1,4.1,13.2-9.2,0.4c-5.5-5.3-12-11.1-14.6-13c-2.5-1.9-6.1-4.7-7.8-6.3s-3.4-2.7-3.7-2.4
			s-2.3,4-4.5,8.3l-4.1,7.8l2.9,5.8c3.7,7.5,16.6,19.3,26.6,24.6c20.9,11,46.2,11.9,67.4,2.4l6.6-3l-6.8-4.5
			c-15.3-10.2-30.8-28.4-44.1-51.9c-4-7.1-9.3-15-11.7-17.4c-3.9-4-14.4-10.4-16.8-10.2C793.3,906.8,788.4,909,783,911.7 M823.6,914
			c2.8,3.5,7.9,11,11.4,16.6c8.8,14.2,22,31.6,28.4,37.2c9.2,8.1,20.5,12.3,28.5,10.6l3.7-0.8l-5.2-2.7
			c-9.3-4.8-16.8-13.8-23.7-28.7c-13.3-28-14.8-30.5-19.9-34.2c-4.6-3.2-5.9-3.5-16.6-3.9l-11.6-0.4L823.6,914 M741.8,926.2
			c-13.4,3.4-15.2,4.9-15.2,12.2c0,5.8,3.6,11.3,9.6,14.7c3.6,2,5.8,2.4,11.3,2c11.4-0.8,18.3-8.1,18.3-19c0-5.6-0.4-6.6-3.7-9.7
			C757.6,922.3,757,922.3,741.8,926.2"/>
		<path class="st6" d="M760.4,577.7c-6.6,4.7-10.8,11.8-10.8,18.2c0,6.2,2.5,5.3,10,0.4c7.5-4.9,13.8-16.1,18.8-12.3
			c4.4,3.3,10.3,28.7,16.5,44.6c5.7,14.6,11.5,14.8,7.9,2.7c-3.2-10.6-3.4-27.9-7.4-37.7C787.5,574.6,773.7,568.3,760.4,577.7"/>
	</g>
</g>
</svg>
